# xmcd CD database file
#
# Track frame offsets:
#	150
#	12499
#	21895
#	27942
#	41887
#	62007
#	68187
#	76763
#	80896
#	96621
#	111787
#	122179
#	133573
#	153943
#	168019
#	186805
#	201699
#	214950
#	234304
#	255702
#	265814
#	274350
#	291356
#	314472
#	332378
#	338556
#
# Disc length: 4733 seconds
#
# Revision: 2
# Processed by: cddbd v1.5.2PL0 Copyright (c) Steve Scherf et al.
# Submitted via: CDex 1.78
#
DISCID=85127b1a
DTITLE=The Beatles - Love
DYEAR=2006
DGENRE=Rock
TTITLE0=Because
TTITLE1=Get Back
TTITLE2=Glass Onion
TTITLE3=Eleanor Rigby/Julia (Transition)
TTITLE4=I Am The Walrus
TTITLE5=I Want To Hold Your Hand
TTITLE6=Drive My Car/The Word/What You're Doing
TTITLE7=Gnik Nus
TTITLE8=Something/Blue Jay Way (Transition)
TTITLE9=Being For The Benefit Of Mr. Kite!/I Want You (She's So Heavy)/Helter Skelter
TTITLE10=Help!
TTITLE11=Blackbird/Yesterday
TTITLE12=Strawberry Fields Forever
TTITLE13=Within You Without You/Tomorrow Never Knows
TTITLE14=Lucy In The Sky With Diamonds
TTITLE15=Octopus's Garden
TTITLE16=Lady Madonna
TTITLE17=Here Comes The Sun/The Inner Light (Transition)
TTITLE18=Come Together/Dear Prudence/Cry Baby Cry (Transition)
TTITLE19=Revolution
TTITLE20=Back In The U.S.S.R.
TTITLE21=While My Guitar Gently Weeps
TTITLE22=A Day In The Life
TTITLE23=Hey Jude
TTITLE24=Sgt. Pepper's Lonely Hearts Club Band (Reprise)
TTITLE25=All You Need Is Love
EXTD=YEAR: 2006
EXTT0=
EXTT1=
EXTT2=
EXTT3=
EXTT4=
EXTT5=
EXTT6=
EXTT7=
EXTT8=
EXTT9=
EXTT10=
EXTT11=
EXTT12=
EXTT13=
EXTT14=
EXTT15=
EXTT16=
EXTT17=
EXTT18=
EXTT19=
EXTT20=
EXTT21=
EXTT22=
EXTT23=
EXTT24=
EXTT25=
PLAYORDER=
